PathFileType	4	(X/Y/Z)	/Users/niels/Desktop/University/Third Semester/Perception and Action/Exam/Gymnastics Motion Tracking/Code for Gym Tracking/Analyzed Data/Webcam_Backflip/id5_3_trajectory_Sports2D/id5_3_trajectory_Sports2D_px_person00.trc
DataRate	CameraRate	NumFrames	NumMarkers	Units	OrigDataRate	OrigDataStartFrame	OrigNumFrames
29.808917197452228	29.808917197452228	11	22	m	29.808917197452228	39	157
Frame#	Time	Hip			RHip			RKnee			RAnkle			RBigToe			RSmallToe			RHeel			LHip			LKnee			LAnkle			LBigToe			LSmallToe			LHeel			Neck			Head			Nose			RShoulder			RElbow			RWrist			LShoulder			LElbow			LWrist		
		X1	Y1	Z1	X2	Y2	Z2	X3	Y3	Z3	X4	Y4	Z4	X5	Y5	Z5	X6	Y6	Z6	X7	Y7	Z7	X8	Y8	Z8	X9	Y9	Z9	X10	Y10	Z10	X11	Y11	Z11	X12	Y12	Z12	X13	Y13	Z13	X14	Y14	Z14	X15	Y15	Z15	X16	Y16	Z16	X17	Y17	Z17	X18	Y18	Z18	X19	Y19	Z19	X20	Y20	Z20	X21	Y21	Z21	X22	Y22	Z22
39	1.3083333333333333	0.9436902293898501	-0.5731010826083556	0.0	0.9408287901673152	-0.5718460865708251	0.0	1.0063078650386543	-0.6553086144560293	0.0	0.9621074237305969	-0.7536624391925134	0.0	1.0014829080073893	-0.7740839751084707	0.0	0.9912688725130384	-0.7775042545837192	0.0	0.9503558253792643	-0.7669108683221565	0.0	0.9408847326816613	-0.5709737419527265	0.0	1.0005938395951188	-0.6539961409226521	0.0	0.9632842533323739	-0.7487159457102883	0.0	1.0005988171894664	-0.7698635996030516	0.0	0.9955409730552325	-0.7661019713259912	0.0	0.9462988407894656	-0.7622791608567273	0.0	0.9961255653723562	-0.44407589897319744	0.0	1.0389678259598045	-0.3853480154386539	0.0	1.040935920748995	-0.4173104205328193	0.0	0.9944405892612913	-0.45378988151549504	0.0	0.9449483592533684	-0.488423456769788	0.0	0.9064011266925736	-0.5257269118696053	0.0	0.9837159948443709	-0.4515563101409232	0.0	0.9398685271629382	-0.4885829065007462	0.0	0.9154254626876412	-0.5269348133978824	0.0
40	1.3418803418803418	0.9417287657687207	-0.5907285335490209	0.0	0.9395324485741681	-0.5894444153594967	0.0	1.0086690953459538	-0.6694371125330343	0.0	0.9624936753820571	-0.7665271723823635	0.0	1.0012393033950673	-0.7853294293113743	0.0	0.9911086611950565	-0.7886590223618649	0.0	0.9508186015505103	-0.779205038777404	0.0	0.9403851350889109	-0.5886665572757002	0.0	1.0038992927586219	-0.6681449561862979	0.0	0.9635530631044171	-0.7618228211064367	0.0	1.0031835342646638	-0.7826608113919166	0.0	0.9980701684854303	-0.7786535541200668	0.0	0.947044373868904	-0.775081982131271	0.0	0.9941334539688667	-0.46052907383338193	0.0	1.0324342943024065	-0.40221469846837365	0.0	1.036634427698416	-0.4335949935440328	0.0	0.9919540766465645	-0.4725069088558719	0.0	0.956287849555439	-0.5186640743763911	0.0	0.93576742577401	-0.5638111493897674	0.0	0.9817788974594535	-0.4698728535236449	0.0	0.9475779763374675	-0.5167641306363976	0.0	0.9391243189036854	-0.559681922400736	0.0
41	1.3754273504273504	0.9406118649896202	-0.6103049482423982	0.0	0.9390544311986351	-0.6093190807770752	0.0	1.008761956656296	-0.6880845518539281	0.0	0.9628933270614473	-0.7843095166018902	0.0	1.0009877754818488	-0.8018002574797344	0.0	0.9911036728987357	-0.8051560102100122	0.0	0.9513322511646439	-0.7966584167700829	0.0	0.9408588242118605	-0.6085428538371445	0.0	1.005007071809163	-0.6868546956394131	0.0	0.9637377205966995	-0.7798722912026659	0.0	1.0054930166410565	-0.8003667572260664	0.0	1.0004210226853398	-0.7964095681364098	0.0	0.947593616923809	-0.7927861751626071	0.0	0.9903888094569563	-0.4776291355907014	0.0	1.0236163828903957	-0.41869353706955564	0.0	1.0302417593523394	-0.4500929958045943	0.0	0.9880035326247454	-0.4916252536278192	0.0	0.9717441105980766	-0.5459462955481643	0.0	0.9723273246996392	-0.590962280329941	0.0	0.9785893652180956	-0.48881442412294224	0.0	0.9605163939635358	-0.5413806402680562	0.0	0.9704843295010847	-0.582749842155174	0.0
42	1.4089743589743589	0.9405741728878968	-0.6299427951824577	0.0	0.939313170415687	-0.6296178076419442	0.0	1.0066843376727408	-0.7095214239570385	0.0	0.9631583382269514	-0.8050042688832716	0.0	1.0006339417440113	-0.8216750529409971	0.0	0.9911509016209558	-0.8253829942398785	0.0	0.9516894584801712	-0.8174928967655257	0.0	0.9421551224654277	-0.6286755046828205	0.0	1.0037121310244728	-0.7083439800879904	0.0	0.9637098943797842	-0.8006549473802548	0.0	1.0067781274748888	-0.8211021091916623	0.0	1.001741399514152	-0.817653535279915	0.0	0.947544211471619	-0.8134922064091972	0.0	0.9848996419026648	-0.49387137198899705	0.0	1.012761521990128	-0.4332716409220579	0.0	1.0219020445429	-0.4652582771702762	0.0	0.9828203843835668	-0.509211753046572	0.0	0.9896360970727577	-0.5647691739059275	0.0	1.0101315037381988	-0.6001105779620163	0.0	0.974220054535921	-0.5063226339905477	0.0	0.9772026538294452	-0.5575357699609235	0.0	1.0034778954460737	-0.5893765666426029	0.0
43	1.4425213675213675	0.9416878896404084	-0.6470340378129016	0.0	0.9403640267063343	-0.647616759813342	0.0	1.0028228992743282	-0.730639672491659	0.0	0.9630400642832644	-0.8254531183688176	0.0	0.9998750743852323	-0.8418122323910753	0.0	0.9908901623480858	-0.8463629495705807	0.0	0.9516606042584358	-0.8386541253001498	0.0	0.9440495745427995	-0.6463478467182663	0.0	1.0002548161814093	-0.7294923679699505	0.0	0.9632203885657097	-0.8209524140487889	0.0	1.0065489438483386	-0.8419505866320435	0.0	1.0015064234014648	-0.8393901588396898	0.0	0.94661473048258	-0.8341566905119172	0.0	0.9780492587557572	-0.507347730618823	0.0	1.0001417782311914	-0.44449710922346425	0.0	1.0119261747860866	-0.47723308663633723	0.0	0.9768852969598939	-0.5229099104692775	0.0	1.0066293502832848	-0.5704818063565754	0.0	1.0408742319963618	-0.5879196509102462	0.0	0.9687888158034016	-0.5200916105190811	0.0	0.9939327563499256	-0.5614801509724631	0.0	1.0301422935450235	-0.5764349000880635	0.0
44	1.476068376068376	0.9439032879285656	-0.6586369644770476	0.0	0.9424398031345206	-0.6601300173810651	0.0	0.9977153188711989	-0.7476901067190248	0.0	0.962386310836079	-0.8422123793665359	0.0	0.9981480291732634	-0.858629148449717	0.0	0.9896755939075208	-0.8644892977210525	0.0	0.9511854463143496	-0.8564670238689195	0.0	0.9463682670048957	-0.6584754264043511	0.0	0.9952168879321704	-0.7465531074248749	0.0	0.9621790244181595	-0.8374758909253752	0.0	1.0045634642791714	-0.8594278464828994	0.0	0.999553821367061	-0.8578379671071269	0.0	0.9449937358086155	-0.8511943362972237	0.0	0.9702205426235592	-0.5159492951880673	0.0	0.9859434045203178	-0.4508355948968022	0.0	1.0004848334156142	-0.48393707429677074	0.0	0.9705150837003543	-0.530332022517665	0.0	1.0184341481054868	-0.5609782359149552	0.0	1.0569740916518917	-0.5560592345913458	0.0	0.9621319527719178	-0.5279123784948648	0.0	1.0056464655004516	-0.5519808413849131	0.0	1.0432141413750855	-0.5461070037286323	0.0
45	1.5096153846153846	0.9471506739588561	-0.6621069720045011	0.0	0.9457705620433869	-0.664278086422965	0.0	0.9920660518341313	-0.7572354700219464	0.0	0.9613322017513981	-0.8522806736908141	0.0	0.9949889276299237	-0.8689238068598826	0.0	0.9869142937536772	-0.8761831354901406	0.0	0.9504933237538402	-0.867402346435066	0.0	0.9491013625571232	-0.6623222983859087	0.0	0.9894558358614165	-0.7560754148602395	0.0	0.9608199447330898	-0.8475150216525256	0.0	1.000747279081521	-0.8700086541171348	0.0	0.9959428674674922	-0.8692159389984165	0.0	0.9433571840331145	-0.8611809033826995	0.0	0.961523346224552	-0.5177281733098538	0.0	0.9701045170585918	-0.4506921797536278	0.0	0.9874056647745573	-0.4834275226571214	0.0	0.9635123488577003	-0.5295822592655364	0.0	1.0211992830413352	-0.5372590640587805	0.0	1.0546619485165016	-0.5103394306031624	0.0	0.9539265410680682	-0.5280207049621057	0.0	1.0081787930033013	-0.5305927322632625	0.0	1.0390683138095873	-0.5046693885385395	0.0
46	1.543162393162393	0.9512458802832391	-0.6556741350665392	0.0	0.950264061777155	-0.6582135058746638	0.0	0.9869355882246444	-0.7567878851495868	0.0	0.9603825010993151	-0.8534237859020259	0.0	0.990608811800879	-0.8705783642635014	0.0	0.9826906674137176	-0.8785736581579662	0.0	0.9501001495767232	-0.8689131902117768	0.0	0.9522497764619917	-0.6561791397187221	0.0	0.9841202613676883	-0.7555579972250532	0.0	0.959691261698398	-0.8490326156217115	0.0	0.995436216179647	-0.8709561011621081	0.0	0.9910573126435801	-0.8707398750940198	0.0	0.9425590605357828	-0.861745579987431	0.0	0.9517826228337933	-0.5114203051110124	0.0	0.9521835842525003	-0.44291782288477355	0.0	0.9722481239079482	-0.47450171108785555	0.0	0.9551483965500331	-0.5198353956532579	0.0	1.012860553336915	-0.5028886510792169	0.0	1.0350942896299022	-0.45833017037110896	0.0	0.9440904494157496	-0.5194907809408442	0.0	1.0000507025900247	-0.5006002980913354	0.0	1.0191374304240064	-0.45913833096399437	0.0
47	1.5767094017094017	0.9556531011016411	-0.6388979846080516	0.0	0.9552659448808478	-0.641521005298065	0.0	0.9838946852906321	-0.7450136629368718	0.0	0.9604303936536731	-0.8443390508409739	0.0	0.9862665504278754	-0.8629152783607922	0.0	0.9782695620689636	-0.8703932743439309	0.0	0.9507638399560885	-0.8599557380643311	0.0	0.9555179516381697	-0.6397366923493717	0.0	0.9807182873814504	-0.7436988811474355	0.0	0.9596543601833928	-0.8406382130974828	0.0	0.9898973021430859	-0.8613887048594383	0.0	0.9859812740379292	-0.8616052295838004	0.0	0.9434601281596834	-0.8521086893524455	0.0	0.9406398160374857	-0.49694083335690653	0.0	0.9315641818900908	-0.42749939306694773	0.0	0.9546436998678554	-0.4572753120780505	0.0	0.9444933374362502	-0.5017138835060104	0.0	0.9937600045563852	-0.46295419885843603	0.0	1.0030911817962491	-0.40697528104926634	0.0	0.9328098437673766	-0.5025778174843355	0.0	0.9825593311381702	-0.46584230335735155	0.0	0.9886747108680298	-0.4148005035394081	0.0
48	1.6102564102564103	0.9594176095262847	-0.6128877402514182	0.0	0.9596061804662787	-0.6153032567327573	0.0	0.9847790060197221	-0.721701387151759	0.0	0.9626424427560158	-0.8247571876464663	0.0	0.984067608704531	-0.8462296751017188	0.0	0.9759240185692137	-0.8520952278192122	0.0	0.9533982350093461	-0.840649841366342	0.0	0.9581828075698547	-0.6141029009121429	0.0	0.9809732231154414	-0.7203341440168906	0.0	0.9618316943876033	-0.8217619797811111	0.0	0.9865092529034014	-0.8422899521666706	0.0	0.9826539616962414	-0.8428216535995258	0.0	0.9468964469299646	-0.8326224583439468	0.0	0.9277005952264354	-0.47547069861309893	0.0	0.9080088748222954	-0.40584047750099245	0.0	0.9346905303820751	-0.43335882844742163	0.0	0.9308924641803332	-0.47711733430187764	0.0	0.9665432857329262	-0.4228677445208613	0.0	0.9649028809264023	-0.36131206840446645	0.0	0.9201662428361304	-0.47879678629551337	0.0	0.9587739201008556	-0.43017906022775887	0.0	0.9540660250421257	-0.37511546596839557	0.0
49	1.6438034188034187	0.9614312945231461	-0.5801516296925102	0.0	0.9619809464492546	-0.5820725116304808	0.0	0.9908990159730847	-0.6876099205682777	0.0	0.9681283840781364	-0.7952064688609578	0.0	0.9862382320838208	-0.8208605048411007	0.0	0.9781057595961853	-0.8247069435819494	0.0	0.9588903060196099	-0.8115066295038995	0.0	0.9593232209118121	-0.5815976086671141	0.0	0.9861889118850767	-0.6861912061991305	0.0	0.9673419281576047	-0.7926367830994236	0.0	0.9880640340260982	-0.8148779951944595	0.0	0.9834727379672576	-0.8155496960911313	0.0	0.9535087637501357	-0.8039289696124859	0.0	0.9128158691970957	-0.4491555520582301	0.0	0.8821393945155312	-0.3805335797699641	0.0	0.9130600590751062	-0.40548787756441973	0.0	0.9143993379807156	-0.44871245860158737	0.0	0.9356306864459457	-0.38730396314204063	0.0	0.9266993665287468	-0.32443933530758856	0.0	0.9061037439907537	-0.45067987960891936	0.0	0.9325350500336358	-0.39726743403379583	0.0	0.9209288987681632	-0.34268534463392636	0.0
